<svg xmlns="http://www.w3.org/2000/svg" xmlns:xlink="http://www.w3.org/1999/xlink" width="380.212" height="227.391" viewBox="0 0 285.159 170.543"><defs><symbol overflow="visible" id="a"><path d="M2.36-5.531c0-.328-.391-.75-.75-.75-.313 0-.36.515-.36.515l.047-.109c-.016-.094-.031-.156-.031-.313 0-.156-.047-1.015.78-1.843a.51.51 0 0 0 .157-.281c0-.047-.219-.266-.281-.266-.11 0-1.219 1.031-1.219 2.39 0 .75.438 1.375.922 1.375.344 0 .734-.406.734-.718zm2.265 0c0-.328-.375-.75-.734-.75-.329 0-.375.515-.375.515l.046-.109c-.015-.094-.03-.156-.03-.313 0-.156-.048-1.015.78-1.843a.51.51 0 0 0 .157-.281c0-.047-.219-.266-.266-.266-.11 0-1.234 1.031-1.234 2.39 0 .75.453 1.375.922 1.375.359 0 .734-.406.734-.718zm0 0"/></symbol><symbol overflow="visible" id="b"><path d="M8.422-7.953v-.516c-.469.031-1.094.031-1.422.031-.344 0-.969 0-1.453-.03v.655c1.297 0 1.14.407 1.14.766v5.219l.266-.11-4.14-6.312c-.11-.156-.235-.219-.5-.219H.327v.656c.672 0 .969 0 1.125.047v6.36c0 .36.172.765-1.125.765v.672C.797-.03 1.438-.03 1.766-.03c.343 0 .968 0 1.437.062V-.64c-1.297 0-1.14-.406-1.14-.765v-6.282l-.266.11c.094.094.094.125.203.266L6.656-.22C6.781-.047 6.906 0 7 0c.094 0 .234-.078.297-.219v-6.828c0-.36-.156-.766 1.125-.766zm0 0"/></symbol><symbol overflow="visible" id="c"><path d="M5.828-1.203v-.828h-.594v.828c0 .672-.125.625-.28.625-.454 0-.298-.485-.298-.672v-2.078c0-.656-.047-1.235-.578-1.703-.422-.39-1.062-.594-1.594-.594-.984 0-1.906.797-1.906 1.578 0 .344.406.656.672.656.297 0 .656-.343.656-.64 0-.485-.593-.64-.515-.64.125-.235.593-.423 1.078-.423.547 0 1.078.313 1.078 1.39v.329C1.312-3.344.234-2.187.234-1.265c0 .937 1.266 1.39 2 1.39.797 0 1.485-.625 1.704-1.203h-.313c.047.562.578 1.14 1.094 1.14.25 0 1.11-.312 1.11-1.265zm-2.281-.625c0 1.172-.703 1.406-1.219 1.406-.578 0-.922-.266-.922-.844 0-1.578 1.875-1.578 2.14-1.593zm0 0"/></symbol><symbol overflow="visible" id="d"><path d="M9.64-.14v-.5c-.765 0-.906.156-.921-.204v-2.203c0-1.11-.047-1.562-.313-1.937-.344-.47-1.015-.579-1.422-.579-1 0-1.671.86-1.859 1.329h.328c-.172-.922-.969-1.329-1.719-1.329-1.171 0-1.78 1.141-1.828 1.22h.25v-1.235L.22-5.422v.625c.969 0 .906-.062.906.531v3.235c0 .547.031.39-.906.39v.672C.688-.03 1.344-.03 1.672-.03c.344 0 1 0 1.453.062V-.64c-.906 0-.906.157-.906-.39V-3.25c0-1.25.672-1.781 1.422-1.781.734 0 .734.468.734 1.187v2.813c0 .547.031.39-.906.39v.672C3.938-.03 4.594-.03 4.922-.03c.344 0 1 0 1.469.062V-.64c-.922 0-.922.157-.922-.39V-3.25c0-1.25.672-1.781 1.422-1.781.734 0 .734.468.734 1.187v2.813c0 .547.031.39-.906.39v.672C7.203-.03 7.844-.03 8.172-.03c.344 0 1 0 1.469.062zm0 0"/></symbol><symbol overflow="visible" id="e"><path d="M6.313-.14v-.5c-.97 0-.907.062-.907-.516V-8.61l-1.984.171v.626c.984 0 .906-.063.906.515v2.64l.281-.093c-.265-.36-.875-.813-1.609-.813C1.61-5.563.25-4.25.25-2.719S1.547.125 2.875.125c.906 0 1.531-.64 1.703-.86l-.281-.109v.969L6.313 0zM4.296-1.548c0 .219.047.14-.11.406-.296.422-.656.72-1.265.72-.297 0-1.438.046-1.438-2.282 0-.86.094-1.235.36-1.625.234-.375.61-.703 1.203-.703.75 0 1.047.5 1.156.687.14.203.094.125.094.344zm0 0"/></symbol><symbol overflow="visible" id="f"><path d="M6.39-.14v-.5c-.968 0-.921.062-.921-.516v-4.422l-2 .156v.625c.984 0 .906-.062.906.531v2.141C4.375-1.109 4-.422 3.109-.422c-.984 0-.89-.406-.89-1.031v-4.125l-2 .156v.625c1.078 0 .906-.11.906.953v1.797c0 .75.047 1.281.406 1.672.282.313.89.5 1.5.5.203 0 .703-.047 1.11-.39.343-.266.53-.72.53-.72l-.265-.109V.125L6.391 0zm0 0"/></symbol><symbol overflow="visible" id="g"><path d="M3.031-.14v-.5c-.922 0-.812.093-.812-.376v-4.562l-1.953.156v.625c.921 0 .875-.062.875.516v3.25c0 .547.03.39-.907.39v.657c.5-.047 1.063-.047 1.422-.047.125 0 .813 0 1.375.047zM2.36-7.36c0-.359-.437-.75-.718-.75-.344 0-.75.422-.75.75 0 .313.421.72.734.72.36 0 .734-.438.734-.72zm0 0"/></symbol><symbol overflow="visible" id="h"><path d="M3.125-.14v-.5c-.922 0-.906.156-.906-.391V-8.61l-1.985.171v.626c.97 0 .907-.063.907.515v6.266c0 .547.03.39-.907.39v.657c.5-.047 1.079-.047 1.438-.047.36 0 .953 0 1.453.047zm0 0"/></symbol><symbol overflow="visible" id="i"><path d="M5.828-5c0-.219-.312-.703-.734-.703-.625 0-1.203.437-1.282.516-.234-.172-.75-.375-1.203-.375-1.078 0-2.046.953-2.046 1.875 0 .687.468 1.234.484 1.25-.047.062-.313.515-.313.984 0 .687.47 1.094.313 1-.172.047-.89.625-.89 1.25 0 .828 1.296 1.656 2.765 1.656 1.422 0 2.75-.781 2.75-1.672 0-.297-.125-1.11-.844-1.484-.61-.313-1.312-.36-2.344-.36-.734 0-.703.047-.921-.187-.11-.11-.172-.234-.172-.484 0-.204.015-.297.062-.375.406.28 1.016.312 1.14.312 1.079 0 2.032-.953 2.032-1.875 0-.328-.14-.875-.422-1.156.36-.375.813-.328.875-.328.047 0-.016-.047-.187-.14.218-.095 0 .187 0 .312 0 .171.28.453.468.453.11 0 .47-.203.47-.469zM3.484-3.687c0 .218.047.609-.156.921-.234.344-.469.422-.719.422-1.062 0-.906-1.047-.906-1.328 0-.219-.047-.594.156-.922.235-.343.485-.422.735-.422 1.047 0 .89 1.063.89 1.329zM4.766.78c0 .719-.735 1.125-1.844 1.125-1.14 0-1.86-.437-1.86-1.125 0-.094-.015-.453.438-.75.25-.172.25-.14 1.094-.14.984 0 2.172-.141 2.172.89zm0 0"/></symbol><symbol overflow="visible" id="j"><path d="M2.484-.094c0-.75-.406-1.36-.875-1.36-.343 0-.734.407-.734.72 0 .328.39.734.75.734.188 0 .422-.125.484-.172.047-.047.063-.047.063-.047s-.25.063-.25.125c0 .766-.266 1.375-.781 1.922-.047.031-.11.172-.11.219 0 .062.219.265.282.265.109 0 1.171-1.03 1.171-2.406zm0 0"/></symbol><symbol overflow="visible" id="k"><path d="M4.25-7.766c0-.453-.594-.953-1.172-.953-.828 0-1.937.813-1.937 2.031v1.235H.203v.64h.938v3.782c0 .547.03.39-.907.39v.657c.5-.047 1.157-.047 1.516-.047.313 0 1.172 0 1.594.062V-.64h-.39c-.876 0-.735.016-.735-.406v-3.766h1.344v-.64H2.187v-1.234c0-1.079.391-1.485.891-1.485.094 0 .156-.015.297.063l.11-.266c-.047.016-.516.266-.516.625 0 .266.36.61.64.61.282 0 .641-.344.641-.626zm0 0"/></symbol><symbol overflow="visible" id="l"><path d="M4.375-4.719c0-.36-.484-.843-1-.843-1.016 0-1.516 1.25-1.547 1.312h.266v-1.328l-1.922.156v.625c.969 0 .906-.062.906.531v3.235c0 .547.031.39-.906.39v.657c.5-.047 1.156-.047 1.516-.047.328 0 1.171 0 1.593.062V-.64h-.39c-.875 0-.735.016-.735-.406v-1.875c0-1.172.313-2.11 1.235-2.11.093 0 .125 0 .171.016l-.124-.25a.618.618 0 0 0-.329.547c0 .344.438.625.625.625.25 0 .641-.312.641-.625zm0 0"/></symbol><symbol overflow="visible" id="m"><path d="M6.39-.14v-.5c-.765 0-.906.156-.921-.204v-2.203c0-1.11-.047-1.562-.313-1.937-.343-.47-1.015-.579-1.422-.579-1.171 0-1.78 1.141-1.828 1.22h.25v-1.235L.22-5.422v.625c.969 0 .906-.062.906.531v3.235c0 .547.031.39-.906.39v.672C.688-.03 1.344-.03 1.672-.03c.344 0 1 0 1.453.062V-.64c-.906 0-.906.157-.906-.39V-3.25c0-1.25.672-1.781 1.422-1.781.734 0 .734.468.734 1.187v2.813c0 .547.031.39-.906.39v.672C3.938-.03 4.594-.03 4.922-.03c.344 0 1 0 1.469.062zm0 0"/></symbol><symbol overflow="visible" id="n"><path d="M5.016-1.563c0-.078-.204-.28-.282-.28-.093 0-.28.218-.312.28-.313 1-.938 1.125-1.453 1.125-.5 0-1.547-.187-1.547-2.25v-.078h3.156c.266 0 .438-.156.438-.375 0-1.203-.797-2.484-2.25-2.484-1.36 0-2.579 1.375-2.579 2.86 0 1.578 1.391 2.89 2.72 2.89 1.421 0 2.109-1.438 2.109-1.688zm-.891-1.734H1.453c.078-1.719.969-1.797 1.313-1.797 1.28 0 1.171 1.547 1.171 1.797zm0 0"/></symbol><symbol overflow="visible" id="o"><path d="M4.36-1.656c0-.657-.438-1.14-.548-1.25-.437-.375-.859-.485-1.656-.625-.344-.078-1.062-.094-1.062-.813 0-.36.093-.765 1.172-.765 1.296 0 1.203.968 1.218 1.328.016.094.266.25.313.25.125 0 .281-.203.281-.422v-1.25c0-.219-.156-.422-.281-.422-.094 0-.438.313-.438.313-.234-.204-.703-.313-1.093-.313-1.438 0-2.032.938-2.032 1.594 0 .14.047.656.5 1.078.375.328.907.453 1.454.562.656.125.687.125.984.375.219.172.328.329.328.672 0 .5-.125.922-1.188.922-.78 0-1.203-.297-1.468-1.484-.047-.219-.11-.14-.11-.14v-.22C.72-2.312.563-2.359.531-2.359c-.14 0-.297.218-.297.437v1.625c0 .219.157.422.282.422.062 0 .171-.047.375-.297.062-.094.062-.11.125-.172.343.422 1.109.469 1.312.469 1.25 0 2.031-.844 2.031-1.781zm0 0"/></symbol><symbol overflow="visible" id="p"><path d="M5.64-2.703c0-1.547-1.327-2.922-2.718-2.922C1.5-5.625.187-4.203.187-2.703c0 1.531 1.36 2.828 2.735 2.828 1.406 0 2.719-1.313 2.719-2.828zm-1.234-.11c0 .422.047 1.063-.265 1.626-.329.562-.766.75-1.22.75-.437 0-.858-.141-1.218-.735-.312-.531-.281-1.14-.281-1.64 0-.454-.047-1.079.328-1.61.328-.516.75-.672 1.172-.672.453 0 .844.188 1.172.64.36.563.312 1.204.312 1.641zm0 0"/></symbol><symbol overflow="visible" id="q"><path d="M3.39-2.406v-.797H-.03v.937H3.39zm0 0"/></symbol><symbol overflow="visible" id="r"><path d="M5.016-1.563c0-.109-.25-.265-.282-.265-.109 0-.28.187-.328.328-.265.86-.734 1.063-1.375 1.063-.734 0-1.547-.485-1.547-2.297 0-1.985.86-2.329 1.454-2.329.453 0 1 .141 1.109.344.14 0-.469.157-.469.64 0 .282.36.641.656.641.266 0 .657-.312.657-.656 0-.812-1-1.531-1.97-1.531-1.39 0-2.671 1.39-2.671 2.906C.25-1.188 1.563.125 2.922.125c1.578 0 2.094-1.578 2.094-1.688zm0 0"/></symbol><symbol overflow="visible" id="s"><path d="M4.047-1.625v-.844h-.578v.813c0 .875-.188 1.218-.64 1.218-.813 0-.673-.968-.673-1.171v-3.204h1.688v-.64H2.156v-2.203h-.578C1.562-6.375 1.297-5.375.047-5.328v.516h1.016v3.187c0 1.328 1.046 1.75 1.687 1.75.75 0 1.297-.89 1.297-1.75zm0 0"/></symbol><symbol overflow="visible" id="t"><path d="M6.11-4.953v-.5c-.5.031-.673.031-1.048.031l-1.14-.031v.64c.672.032.562.25.562.375 0 .11-.03.172-.078.313L3.172-1.047H3.5l-1.344-3.36c-.047-.171-.062-.171-.062-.234 0-.312.297-.171.672-.171v-.657c-.454.047-1.079.047-1.407.047L.047-5.453v.64c.844 0 .797-.093.937.282L2.688-.25c.062.172.25.375.39.375.094 0 .313-.172.406-.375l1.547-3.906c.11-.266.157-.64 1.078-.657zm0 0"/></symbol><symbol overflow="visible" id="u"><path d="M8.375-4.953v-.516c-.453.047-.672.047-1.031.047l-1.188-.031v.64c.703.032.688.204.688.438l.265.11s-.265-.016-.312.109l-1.11 3.125h.329L4.812-4.406c-.062-.14-.062-.172-.062-.203 0-.344.297-.204.703-.204v-.64c-.5.031-.984.031-1.328.031l-1.25-.031v.64c.625 0 .656 0 .797.157.062.062.156.36.234.593L2.891-1.14h.328L2.063-4.406c-.047-.14-.047-.172-.047-.219 0-.328.296-.188.687-.188v-.656c-.453.047-1.047.047-1.375.047L.047-5.453v.64c.781 0 .734-.093.86.297L2.421-.234c.047.125.25.359.375.359.11 0 .328-.188.375-.375l1.203-3.406h-.328L5.25-.25c.063.188.281.375.39.375.126 0 .329-.234.376-.36L7.39-4.155c.265-.75.625-.64.984-.657zm0 0"/></symbol><symbol overflow="visible" id="v"><path d="M2.36-.734c0-.313-.438-.72-.735-.72-.344 0-.75.423-.75.72 0 .359.469.734.734.734.329 0 .75-.39.75-.734zm0 0"/></symbol><symbol overflow="visible" id="w"><path d="M10.344-.14v-.5h-.406c-.86 0-.735.03-.735-.407v-6.36c0-.437-.125-.405.735-.405h.406v-.657H8.328c-.265 0-.437.172-.531.406l-2.61 6.797h.329l-2.61-6.812c-.078-.235-.25-.39-.531-.39H.359v.655h.407c.859 0 .734-.03.734.407v6.031c0 .328.156.734-1.14.734v.672C.843-.03 1.468-.03 1.812-.03c.328 0 .953 0 1.421.062V-.64c-1.28 0-1.125-.406-1.125-.734V-7.75h-.25L4.672-.375c.047.14.25.375.375.375.11 0 .281-.203.36-.375L8.25-7.813H8v6.766c0 .438.125.406-.734.406h-.407v.672C7.297-.03 8.266-.03 8.61-.03c.344 0 1.297 0 1.735.062zm0 0"/></symbol><symbol overflow="visible" id="x"><path d="M6.234-2.719c0-1.531-1.28-2.844-2.609-2.844-.656 0-1.344.344-1.75.844l.281.11v-4l-1.984.171v.626c.969 0 .906-.063.906.515V0h.516l.343-.625c.157.25.782.75 1.547.75 1.375 0 2.75-1.313 2.75-2.844zM5-2.734c0 .796-.078 1.187-.36 1.625-.234.375-.593.687-1.202.687-.641 0-.954-.36-1.157-.687-.156-.25-.11-.188-.11-.391v-2.469c0-.219-.046-.125.095-.328.28-.422.703-.734 1.28-.734.36 0 1.454 0 1.454 2.297zm0 0"/></symbol><symbol overflow="visible" id="y"><path d="M2.578.469v-6.047L.5-5.422v.625c1.063 0 1-.062 1 .531V.516c0 .656.047 1.39-.656 1.39l.11.25S.562 1.953.28 1.781l-.11.25c.313-.062.563-.422.563-.625C.734 1.125.375.75.094.75c-.297 0-.672.375-.672.656 0 .578.812 1.032 1.437 1.032.86 0 1.72-.891 1.72-1.97zm.016-7.828c0-.36-.438-.75-.735-.75-.328 0-.75.421-.75.75 0 .312.438.718.75.718.36 0 .735-.437.735-.718zm0 0"/></symbol><symbol overflow="visible" id="z"><path d="M6.234-2.719c0-1.531-1.28-2.844-2.593-2.844-1.047 0-1.735.797-1.766.844l.281.11v-.97l-1.984.157v.625c1 0 .906-.062.906.469v5.625c0 .531.031.375-.906.375v.672c.469-.047 1.125-.047 1.453-.047.344 0 1 0 1.453.047v-.672c-.922 0-.906.156-.906-.375V-.781l-.266.094c.203.312.813.812 1.578.812 1.375 0 2.75-1.313 2.75-2.844zM5-2.719C5-1.297 4.344-.422 3.437-.422c-.374 0-.609-.11-.859-.328-.265-.281-.406-.406-.406-.75v-2.453c0-.235-.047-.14.094-.328.359-.532.828-.735 1.28-.735.907 0 1.454.954 1.454 2.297zm0 0"/></symbol><symbol overflow="visible" id="A"><path d="M8.266-1.563c0-.078-.204-.28-.282-.28-.093 0-.28.234-.296.265-.282 1-.829 1.14-1.329 1.14-.53 0-.937-.265-1.265-.812-.375-.61-.328-1.25-.328-1.516h3.062c.266 0 .438-.156.438-.375 0-1.296-.813-2.484-2.094-2.484-.656 0-1.438.36-1.766.813-.484-.72-1.5-.813-1.781-.813-1.016 0-1.922.813-1.922 1.578 0 .344.39.656.672.656.281 0 .64-.343.64-.64 0-.485-.578-.64-.515-.64.14-.25.64-.423 1.078-.423.563 0 1.094.313 1.094 1.39v.438C.875-3.172.375-1.766.375-1.219.375-.375 1.531.125 2.359.125c.891 0 1.813-.563 1.985-.938.593.782 1.593.938 1.968.938 1.297 0 1.954-1.453 1.954-1.688zm-.891-1.734H4.797c.125-1.797 1.11-1.797 1.36-1.797 1.155 0 1.046 1.563 1.046 1.797zM3.797-1.734c0 .875-.578 1.312-1.344 1.312-.562 0-.906-.234-.906-.812 0-.313.11-.782.75-1.141.578-.344 1.14-.344 1.375-.36 0 .11 0 .344.078.672.047.204.047.204.047.329zm0 0"/></symbol><symbol overflow="visible" id="B"><path d="M8.438-4.14c0-2.313-1.766-4.329-3.75-4.329H.327v.656h.406c.875 0 .735-.03.735.407v6.36c0 .437.14.405-.735.405H.328V0h4.36c2 0 3.75-1.938 3.75-4.14zM7.03-4.157c0 .672.032 1.687-.64 2.562-.407.5-1 .953-2 .953H3.125c-.516 0-.39.063-.39-.328v-6.515c0-.391-.126-.329.39-.329h1.266c.984 0 1.656.438 2.14 1.22.547.859.5 1.952.5 2.437zm0 0"/></symbol><symbol overflow="visible" id="C"><path d="M6.313 2.172v-.5c-.922 0-.907.156-.907-.375v-6.86h-.5l-.5 1.266h.313C4.5-4.75 3.89-5.563 2.969-5.563 1.656-5.563.25-4.296.25-2.719.25-1.188 1.563.125 2.875.125c.64 0 1.266-.344 1.703-.938l-.281-.109v2.219c0 .531.047.375-.906.375v.672c.484-.047 1.125-.047 1.468-.047.344 0 .985 0 1.454.047zM4.327-1.75c0 .39-.172.625-.437.906-.438.438-.766.422-.954.422-.906 0-1.453-.969-1.453-2.297 0-1.422.672-2.297 1.563-2.297.953 0 1.281.891 1.281 1.516zm0 0"/></symbol><symbol overflow="visible" id="D"><path d="M6.39-.14v-.5c-.765 0-.906.156-.921-.204v-2.203c0-1.11-.047-1.562-.313-1.937-.343-.47-1.015-.579-1.422-.579-1.03 0-1.671.922-1.78 1.141h.25v-4.187l-1.985.171v.626c.969 0 .906-.063.906.515v6.266c0 .547.031.39-.906.39v.672C.688-.03 1.344-.03 1.672-.03c.344 0 1 0 1.453.062V-.64c-.906 0-.906.157-.906-.39V-3.25c0-1.25.672-1.781 1.422-1.781.734 0 .734.468.734 1.187v2.813c0 .547.031.39-.906.39v.672C3.938-.03 4.594-.03 4.922-.03c.344 0 1 0 1.469.062zm0 0"/></symbol><symbol overflow="visible" id="E"><path d="M5.234-5.422c0-.172-.171-.328-.125-.297L3.453-6.53l1.375-.672.11-.047c.14-.063.296-.219.296-.406 0-.188-.296-.469-.468-.469a.847.847 0 0 0-.36.156l-1.172.875.141-1.593c0-.157-.156-.579-.453-.579-.172 0-.5.297-.453.454v.124l.125 1.594-1.172-.86c-.14-.109-.266-.171-.344-.171-.172 0-.484.281-.484.469 0 .187.172.343.125.312l1.656.813-1.36.656-.124.047c-.141.078-.297.234-.297.406 0 .203.312.469.484.469a.718.718 0 0 0 .344-.14l1.172-.876-.125 1.64v.063c-.047.172.281.454.453.454.297 0 .453-.407.453-.563l-.14-1.594 1.171.86c.14.109.282.156.36.156.171 0 .468-.266.468-.469zm0 0"/></symbol><symbol overflow="visible" id="F"><path d="M6-2.344c0-.734-.328-1.375-.64-1.765-.454-.547-1.094-.72-1.563-.844l-1.313-.328c-.609-.157-.984-.594-.984-1.36 0-.843.516-1.453 1.438-1.453C4.905-8.094 5-6.297 5.062-5.78c.032.14.204.328.313.328.14 0 .297-.203.297-.422v-2.406c0-.219-.156-.438-.281-.438a.394.394 0 0 0-.282.203l-.296.563c-.454-.563-1.344-.766-1.875-.766C1.609-8.719.483-7.5.483-6.28c0 .578.25 1.218.688 1.687.422.469.953.61 1.797.828.422.094 1.078.266 1.25.329.562.28.765.78.765 1.453 0 .89-.468 1.593-1.453 1.593-.547 0-1.172-.093-1.765-.593-.688-.625-.688-1.375-.704-1.782-.015-.093-.171.016-.171.016l-.11-.266c-.14 0-.297.22-.297.438v2.406c0 .219.157.422.282.422.078 0 .187-.063.28-.203l.298-.563C1.64-.187 2.516.25 3.53.25 4.875.25 6-1.031 6-2.344zm0 0"/></symbol><symbol overflow="visible" id="G"><path d="M7.953-2.922c0-.125-.156-.36-.297-.36-.11 0-.297.22-.297.313C7.25-1.079 6.031-.39 4.875-.39c-.828 0-2.969-.343-2.969-3.843C1.906-7.688 4-8.063 4.86-8.063c1.266 0 2.188.922 2.438 2.704.016.14.187.328.328.328.172 0 .328-.188.328-.422v-2.828c0-.219-.156-.438-.281-.438-.063 0-.203.078-.266.203l-.5.782C6.5-8.25 5.578-8.72 4.72-8.72 2.53-8.719.484-6.672.484-4.234.484-1.75 2.563.25 4.72.25c1.968 0 3.234-1.86 3.234-3.172zm0 0"/></symbol><symbol overflow="visible" id="H"><path d="M7.453-6.094c0-1.156-1.312-2.375-2.922-2.375H.328v.656h.406c.875 0 .735-.03.735.407v6.36c0 .437.14.405-.735.405H.328v.672C.781-.03 1.766-.03 2.11-.03c.36 0 1.344 0 1.782.062V-.64H3.5c-.86 0-.734.032-.734-.406v-2.75h1.859c1.406 0 2.828-1.094 2.828-2.297zm-1.422 0c0 .5.157 1.703-1.781 1.703H2.734v-3.093c0-.391-.125-.329.391-.329H4.25c1.938 0 1.781 1.204 1.781 1.72zm0 0"/></symbol><symbol overflow="visible" id="I"><path d="M2.36-4.719c0-.328-.438-.734-.735-.734-.344 0-.75.437-.75.734 0 .36.469.719.734.719.329 0 .75-.39.75-.719zm.03 4.594c0-.438-.187-1.328-.78-1.328-.344 0-.735.406-.735.719 0 .328.39.734.75.734.234 0 .422-.11.203.063 0 .093.047.828-.687 1.734-.063.094.156.36.156.36l-.266-.11c0 .062.219.265.282.265.093 0 1.078-1.03 1.078-2.437zm0 0"/></symbol><symbol overflow="visible" id="J"><path d="M4.047 2.766c0-.047-.047-.172-.25-.375C2.594 1.187 1.969-.688 1.969-3.125c0-2.313.515-4.203 1.906-5.61a.515.515 0 0 0 .172-.28c0-.063-.219-.25-.266-.25-.156 0-1.265.906-1.844 2.078A9.033 9.033 0 0 0 1-3.125c0 1.063.172 2.484.797 3.766C2.5 2.078 3.64 3 3.78 3c.047 0 .266-.172.266-.234zm0 0"/></symbol><symbol overflow="visible" id="K"><path d="M3.531-3.125c0-.906-.125-2.39-.797-3.766C2.031-8.328.891-9.266.766-9.266c-.047 0-.282.188-.282.25 0 .032.047.172.25.375 1.204 1.204 1.829 3.079 1.829 5.516 0 2.313-.516 4.203-1.907 5.61-.125.109-.172.234-.172.28 0 .063.235.235.282.235.156 0 1.25-.89 1.828-2.063a9.13 9.13 0 0 0 .937-4.062zm0 0"/></symbol><symbol overflow="visible" id="L"><path d="M8.547-.14v-.5c-.938 0-1 .156-1.156-.344L4.78-8.47c-.047-.14-.234-.36-.39-.36-.172 0-.36.188-.422.376l-2.5 7.156c-.172.484-.328.64-1.266.656v.657l1.313-.047c.343 0 .906 0 1.375.062V-.64c-.657-.015-.797-.109-.797-.453 0-.062 0-.093.062-.25l.5-1.437h2.781l.61 1.734c.062.14.062.156.062.203 0 .36-.437.203-.906.203v.672C5.641-.03 6.593-.03 6.922-.03c.328 0 1.187 0 1.625.062zm-3.11-3.297H2.876L4.203-7.25h-.312l1.328 3.813zm0 0"/></symbol><symbol overflow="visible" id="M"><path d="M2.531-7.219c0-.734-.422-1.375-.906-1.375-.344 0-.734.422-.734.735 0 .312.39.718.75.718.312 0 .578-.265.578-.265l-.266-.11c0 .079.016.141.016.297 0 .172.047 1.032-.782 1.86a.539.539 0 0 0-.14.265c0 .063.219.266.281.266.11 0 1.203-1.031 1.203-2.39zm2.281 0c0-.734-.437-1.375-.921-1.375-.344 0-.735.422-.735.735 0 .312.39.718.75.718.328 0 .594-.265.594-.265l-.281-.11c.015.079.031.141.031.297 0 .172.047 1.032-.781 1.86a.483.483 0 0 0-.156.265c0 .063.218.266.28.266.11 0 1.22-1.031 1.22-2.39zm0 0"/></symbol><clipPath id="N"><path d="M167.234 82.5h5v154.516h-5zm0 0"/></clipPath><clipPath id="O"><path d="M423.008 82.527h5v154.516h-5zm0 0"/></clipPath></defs><g transform="translate(-155.263 -74.5)"><use xlink:href="#a" x="164.56" y="97.03" width="100%" height="100%"/><use xlink:href="#b" x="170.083" y="97.03" width="100%" height="100%"/><use xlink:href="#c" x="178.858" y="97.03" width="100%" height="100%"/><use xlink:href="#d" x="184.716" y="97.03" width="100%" height="100%"/></g><g transform="translate(-155.263 -74.5)"><use xlink:href="#e" x="199.11" y="97.03" width="100%" height="100%"/><use xlink:href="#f" x="205.613" y="97.03" width="100%" height="100%"/><use xlink:href="#g" x="212.117" y="97.03" width="100%" height="100%"/></g><g transform="translate(-155.263 -74.5)"><use xlink:href="#h" x="220.007" y="97.03" width="100%" height="100%"/><use xlink:href="#g" x="223.259" y="97.03" width="100%" height="100%"/><use xlink:href="#i" x="226.511" y="97.03" width="100%" height="100%"/><use xlink:href="#f" x="232.369" y="97.03" width="100%" height="100%"/><use xlink:href="#h" x="238.872" y="97.03" width="100%" height="100%"/><use xlink:href="#c" x="242.124" y="97.03" width="100%" height="100%"/><use xlink:href="#j" x="247.982" y="97.03" width="100%" height="100%"/></g><g transform="translate(-155.263 -74.5)"><use xlink:href="#k" x="256.064" y="97.03" width="100%" height="100%"/><use xlink:href="#l" x="259.638" y="97.03" width="100%" height="100%"/><use xlink:href="#g" x="264.193" y="97.03" width="100%" height="100%"/><use xlink:href="#m" x="267.445" y="97.03" width="100%" height="100%"/><use xlink:href="#i" x="273.948" y="97.03" width="100%" height="100%"/><use xlink:href="#g" x="279.806" y="97.03" width="100%" height="100%"/><use xlink:href="#h" x="283.058" y="97.03" width="100%" height="100%"/><use xlink:href="#h" x="286.31" y="97.03" width="100%" height="100%"/><use xlink:href="#c" x="289.561" y="97.03" width="100%" height="100%"/></g><g transform="translate(-155.263 -74.5)"><use xlink:href="#c" x="300.058" y="97.03" width="100%" height="100%"/><use xlink:href="#j" x="305.916" y="97.03" width="100%" height="100%"/></g><g transform="translate(-155.263 -74.5)"><use xlink:href="#n" x="313.998" y="97.03" width="100%" height="100%"/><use xlink:href="#f" x="319.198" y="97.03" width="100%" height="100%"/><use xlink:href="#g" x="325.701" y="97.03" width="100%" height="100%"/><use xlink:href="#o" x="328.953" y="97.03" width="100%" height="100%"/><use xlink:href="#d" x="333.568" y="97.03" width="100%" height="100%"/><use xlink:href="#p" x="343.323" y="97.03" width="100%" height="100%"/></g><use xlink:href="#e" x="349.504" y="97.03" width="100%" height="100%" transform="translate(-155.263 -74.5)"/><g transform="translate(-155.263 -74.5)"><use xlink:href="#o" x="360.658" y="97.03" width="100%" height="100%"/><use xlink:href="#p" x="365.272" y="97.03" width="100%" height="100%"/></g><g transform="translate(-155.263 -74.5)"><use xlink:href="#e" x="371.453" y="97.03" width="100%" height="100%"/><use xlink:href="#c" x="377.957" y="97.03" width="100%" height="100%"/><use xlink:href="#h" x="383.815" y="97.03" width="100%" height="100%"/><use xlink:href="#n" x="387.066" y="97.03" width="100%" height="100%"/><use xlink:href="#o" x="392.267" y="97.03" width="100%" height="100%"/><use xlink:href="#j" x="396.882" y="97.03" width="100%" height="100%"/></g><g transform="translate(-155.263 -74.5)"><use xlink:href="#o" x="404.963" y="97.03" width="100%" height="100%"/><use xlink:href="#p" x="409.578" y="97.03" width="100%" height="100%"/><use xlink:href="#h" x="415.436" y="97.03" width="100%" height="100%"/><use xlink:href="#h" x="418.687" y="97.03" width="100%" height="100%"/><use xlink:href="#g" x="421.939" y="97.03" width="100%" height="100%"/><use xlink:href="#q" x="425.191" y="97.03" width="100%" height="100%"/></g><g transform="translate(-155.263 -74.5)"><use xlink:href="#r" x="170.08" y="111.47" width="100%" height="100%"/><use xlink:href="#g" x="175.28" y="111.47" width="100%" height="100%"/><use xlink:href="#s" x="178.532" y="111.47" width="100%" height="100%"/><use xlink:href="#f" x="183.087" y="111.47" width="100%" height="100%"/><use xlink:href="#e" x="189.591" y="111.47" width="100%" height="100%"/><use xlink:href="#g" x="196.094" y="111.47" width="100%" height="100%"/><use xlink:href="#m" x="199.346" y="111.47" width="100%" height="100%"/></g><use xlink:href="#t" x="211.289" y="111.47" width="100%" height="100%" transform="translate(-155.263 -74.5)"/><g transform="translate(-155.263 -74.5)"><use xlink:href="#n" x="217.159" y="111.47" width="100%" height="100%"/><use xlink:href="#h" x="222.359" y="111.47" width="100%" height="100%"/><use xlink:href="#j" x="225.611" y="111.47" width="100%" height="100%"/></g><g transform="translate(-155.263 -74.5)"><use xlink:href="#u" x="234.697" y="111.47" width="100%" height="100%"/><use xlink:href="#g" x="243.149" y="111.47" width="100%" height="100%"/><use xlink:href="#o" x="246.401" y="111.47" width="100%" height="100%"/><use xlink:href="#g" x="251.015" y="111.47" width="100%" height="100%"/><use xlink:href="#v" x="254.267" y="111.47" width="100%" height="100%"/></g><g transform="translate(-155.263 -74.5)"><use xlink:href="#w" x="267.37" y="111.47" width="100%" height="100%"/><use xlink:href="#p" x="278.093" y="111.47" width="100%" height="100%"/><use xlink:href="#l" x="283.951" y="111.47" width="100%" height="100%"/><use xlink:href="#x" x="288.506" y="111.47" width="100%" height="100%"/><use xlink:href="#g" x="295.01" y="111.47" width="100%" height="100%"/></g><g transform="translate(-155.263 -74.5)"><use xlink:href="#c" x="303.713" y="111.47" width="100%" height="100%"/><use xlink:href="#f" x="309.571" y="111.47" width="100%" height="100%"/><use xlink:href="#r" x="316.074" y="111.47" width="100%" height="100%"/><use xlink:href="#s" x="321.275" y="111.47" width="100%" height="100%"/><use xlink:href="#p" x="325.83" y="111.47" width="100%" height="100%"/><use xlink:href="#l" x="331.688" y="111.47" width="100%" height="100%"/></g><g transform="translate(-155.263 -74.5)"><use xlink:href="#h" x="341.694" y="111.47" width="100%" height="100%"/><use xlink:href="#p" x="344.946" y="111.47" width="100%" height="100%"/><use xlink:href="#l" x="350.804" y="111.47" width="100%" height="100%"/><use xlink:href="#n" x="355.359" y="111.47" width="100%" height="100%"/><use xlink:href="#d" x="360.559" y="111.47" width="100%" height="100%"/></g><g transform="translate(-155.263 -74.5)"><use xlink:href="#m" x="375.766" y="111.47" width="100%" height="100%"/><use xlink:href="#p" x="382.269" y="111.47" width="100%" height="100%"/><use xlink:href="#m" x="388.127" y="111.47" width="100%" height="100%"/></g><g transform="translate(-155.263 -74.5)"><use xlink:href="#y" x="400.082" y="111.47" width="100%" height="100%"/><use xlink:href="#f" x="403.657" y="111.47" width="100%" height="100%"/><use xlink:href="#o" x="410.16" y="111.47" width="100%" height="100%"/><use xlink:href="#s" x="414.775" y="111.47" width="100%" height="100%"/><use xlink:href="#p" x="419.33" y="111.47" width="100%" height="100%"/><use xlink:href="#v" x="425.188" y="111.47" width="100%" height="100%"/></g><g transform="translate(-155.263 -74.5)"><use xlink:href="#b" x="170.08" y="125.92" width="100%" height="100%"/><use xlink:href="#c" x="178.855" y="125.92" width="100%" height="100%"/><use xlink:href="#d" x="184.713" y="125.92" width="100%" height="100%"/></g><g transform="translate(-155.263 -74.5)"><use xlink:href="#h" x="199.035" y="125.92" width="100%" height="100%"/><use xlink:href="#c" x="202.287" y="125.92" width="100%" height="100%"/><use xlink:href="#r" x="208.145" y="125.92" width="100%" height="100%"/><use xlink:href="#f" x="213.345" y="125.92" width="100%" height="100%"/><use xlink:href="#o" x="219.849" y="125.92" width="100%" height="100%"/></g><g transform="translate(-155.263 -74.5)"><use xlink:href="#h" x="229.042" y="125.92" width="100%" height="100%"/><use xlink:href="#g" x="232.294" y="125.92" width="100%" height="100%"/><use xlink:href="#x" x="235.546" y="125.92" width="100%" height="100%"/></g><g transform="translate(-155.263 -74.5)"><use xlink:href="#n" x="242.372" y="125.92" width="100%" height="100%"/><use xlink:href="#l" x="247.572" y="125.92" width="100%" height="100%"/><use xlink:href="#p" x="252.127" y="125.92" width="100%" height="100%"/><use xlink:href="#j" x="257.985" y="125.92" width="100%" height="100%"/></g><g transform="translate(-155.263 -74.5)"><use xlink:href="#z" x="265.983" y="125.92" width="100%" height="100%"/><use xlink:href="#l" x="272.487" y="125.92" width="100%" height="100%"/><use xlink:href="#n" x="277.041" y="125.92" width="100%" height="100%"/><use xlink:href="#s" x="282.242" y="125.92" width="100%" height="100%"/><use xlink:href="#g" x="286.797" y="125.92" width="100%" height="100%"/><use xlink:href="#f" x="290.048" y="125.92" width="100%" height="100%"/><use xlink:href="#d" x="296.552" y="125.92" width="100%" height="100%"/></g><g transform="translate(-155.263 -74.5)"><use xlink:href="#c" x="310.874" y="125.92" width="100%" height="100%"/><use xlink:href="#s" x="316.732" y="125.92" width="100%" height="100%"/><use xlink:href="#j" x="321.287" y="125.92" width="100%" height="100%"/></g><g transform="translate(-155.263 -74.5)"><use xlink:href="#h" x="329.285" y="125.92" width="100%" height="100%"/><use xlink:href="#p" x="332.536" y="125.92" width="100%" height="100%"/><use xlink:href="#x" x="338.394" y="125.92" width="100%" height="100%"/></g><g transform="translate(-155.263 -74.5)"><use xlink:href="#p" x="345.221" y="125.92" width="100%" height="100%"/><use xlink:href="#l" x="351.079" y="125.92" width="100%" height="100%"/><use xlink:href="#s" x="355.634" y="125.92" width="100%" height="100%"/><use xlink:href="#g" x="360.188" y="125.92" width="100%" height="100%"/><use xlink:href="#o" x="363.44" y="125.92" width="100%" height="100%"/></g><g transform="translate(-155.263 -74.5)"><use xlink:href="#t" x="372.634" y="125.92" width="100%" height="100%"/><use xlink:href="#g" x="378.814" y="125.92" width="100%" height="100%"/><use xlink:href="#s" x="382.066" y="125.92" width="100%" height="100%"/><use xlink:href="#A" x="386.621" y="125.92" width="100%" height="100%"/><use xlink:href="#j" x="395.073" y="125.92" width="100%" height="100%"/></g><g transform="translate(-155.263 -74.5)"><use xlink:href="#f" x="403.071" y="125.92" width="100%" height="100%"/><use xlink:href="#h" x="409.575" y="125.92" width="100%" height="100%"/><use xlink:href="#s" x="412.826" y="125.92" width="100%" height="100%"/><use xlink:href="#l" x="417.381" y="125.92" width="100%" height="100%"/><use xlink:href="#g" x="421.936" y="125.92" width="100%" height="100%"/><use xlink:href="#q" x="425.188" y="125.92" width="100%" height="100%"/></g><g transform="translate(-155.263 -74.5)"><use xlink:href="#r" x="170.08" y="140.36" width="100%" height="100%"/><use xlink:href="#g" x="175.28" y="140.36" width="100%" height="100%"/><use xlink:href="#n" x="178.532" y="140.36" width="100%" height="100%"/><use xlink:href="#o" x="183.733" y="140.36" width="100%" height="100%"/></g><g transform="translate(-155.263 -74.5)"><use xlink:href="#n" x="192.089" y="140.36" width="100%" height="100%"/><use xlink:href="#s" x="197.29" y="140.36" width="100%" height="100%"/><use xlink:href="#j" x="201.844" y="140.36" width="100%" height="100%"/></g><g transform="translate(-155.263 -74.5)"><use xlink:href="#s" x="208.874" y="140.36" width="100%" height="100%"/><use xlink:href="#n" x="213.429" y="140.36" width="100%" height="100%"/><use xlink:href="#h" x="218.629" y="140.36" width="100%" height="100%"/><use xlink:href="#h" x="221.881" y="140.36" width="100%" height="100%"/><use xlink:href="#f" x="225.133" y="140.36" width="100%" height="100%"/><use xlink:href="#o" x="231.636" y="140.36" width="100%" height="100%"/><use xlink:href="#v" x="236.251" y="140.36" width="100%" height="100%"/></g><g transform="translate(-155.263 -74.5)"><use xlink:href="#B" x="244.655" y="140.36" width="100%" height="100%"/><use xlink:href="#p" x="253.598" y="140.36" width="100%" height="100%"/><use xlink:href="#m" x="259.456" y="140.36" width="100%" height="100%"/><use xlink:href="#n" x="265.959" y="140.36" width="100%" height="100%"/><use xlink:href="#r" x="271.16" y="140.36" width="100%" height="100%"/></g><g transform="translate(-155.263 -74.5)"><use xlink:href="#c" x="280.102" y="140.36" width="100%" height="100%"/><use xlink:href="#h" x="285.96" y="140.36" width="100%" height="100%"/><use xlink:href="#g" x="289.212" y="140.36" width="100%" height="100%"/><use xlink:href="#C" x="292.463" y="140.36" width="100%" height="100%"/><use xlink:href="#f" x="298.644" y="140.36" width="100%" height="100%"/><use xlink:href="#n" x="305.148" y="140.36" width="100%" height="100%"/><use xlink:href="#s" x="310.348" y="140.36" width="100%" height="100%"/><use xlink:href="#j" x="314.903" y="140.36" width="100%" height="100%"/></g><g transform="translate(-155.263 -74.5)"><use xlink:href="#s" x="321.944" y="140.36" width="100%" height="100%"/><use xlink:href="#p" x="326.499" y="140.36" width="100%" height="100%"/><use xlink:href="#l" x="332.357" y="140.36" width="100%" height="100%"/><use xlink:href="#s" x="336.912" y="140.36" width="100%" height="100%"/><use xlink:href="#p" x="341.467" y="140.36" width="100%" height="100%"/><use xlink:href="#l" x="347.325" y="140.36" width="100%" height="100%"/></g><g transform="translate(-155.263 -74.5)"><use xlink:href="#o" x="355.622" y="140.36" width="100%" height="100%"/><use xlink:href="#n" x="360.236" y="140.36" width="100%" height="100%"/><use xlink:href="#e" x="365.437" y="140.36" width="100%" height="100%"/></g><g transform="translate(-155.263 -74.5)"><use xlink:href="#c" x="375.694" y="140.36" width="100%" height="100%"/><use xlink:href="#r" x="381.552" y="140.36" width="100%" height="100%"/><use xlink:href="#r" x="386.752" y="140.36" width="100%" height="100%"/><use xlink:href="#f" x="391.953" y="140.36" width="100%" height="100%"/><use xlink:href="#d" x="398.456" y="140.36" width="100%" height="100%"/><use xlink:href="#o" x="408.212" y="140.36" width="100%" height="100%"/><use xlink:href="#c" x="412.826" y="140.36" width="100%" height="100%"/><use xlink:href="#m" x="418.684" y="140.36" width="100%" height="100%"/></g><g transform="translate(-155.263 -74.5)"><use xlink:href="#x" x="170.08" y="154.81" width="100%" height="100%"/><use xlink:href="#g" x="176.584" y="154.81" width="100%" height="100%"/><use xlink:href="#x" x="179.835" y="154.81" width="100%" height="100%"/></g><g transform="translate(-155.263 -74.5)"><use xlink:href="#n" x="186.65" y="154.81" width="100%" height="100%"/><use xlink:href="#m" x="191.85" y="154.81" width="100%" height="100%"/><use xlink:href="#e" x="198.354" y="154.81" width="100%" height="100%"/><use xlink:href="#f" x="204.857" y="154.81" width="100%" height="100%"/><use xlink:href="#d" x="211.361" y="154.81" width="100%" height="100%"/><use xlink:href="#j" x="221.116" y="154.81" width="100%" height="100%"/></g><g transform="translate(-155.263 -74.5)"><use xlink:href="#n" x="228.743" y="154.81" width="100%" height="100%"/><use xlink:href="#l" x="233.944" y="154.81" width="100%" height="100%"/><use xlink:href="#c" x="238.498" y="154.81" width="100%" height="100%"/><use xlink:href="#s" x="244.356" y="154.81" width="100%" height="100%"/></g><g transform="translate(-155.263 -74.5)"><use xlink:href="#h" x="253.179" y="154.81" width="100%" height="100%"/><use xlink:href="#g" x="256.431" y="154.81" width="100%" height="100%"/><use xlink:href="#i" x="259.683" y="154.81" width="100%" height="100%"/><use xlink:href="#f" x="265.541" y="154.81" width="100%" height="100%"/><use xlink:href="#h" x="272.044" y="154.81" width="100%" height="100%"/><use xlink:href="#c" x="275.296" y="154.81" width="100%" height="100%"/></g><g transform="translate(-155.263 -74.5)"><use xlink:href="#c" x="285.422" y="154.81" width="100%" height="100%"/><use xlink:href="#h" x="291.28" y="154.81" width="100%" height="100%"/><use xlink:href="#g" x="294.532" y="154.81" width="100%" height="100%"/><use xlink:href="#C" x="297.783" y="154.81" width="100%" height="100%"/><use xlink:href="#f" x="303.964" y="154.81" width="100%" height="100%"/><use xlink:href="#n" x="310.468" y="154.81" width="100%" height="100%"/><use xlink:href="#s" x="315.668" y="154.81" width="100%" height="100%"/></g><g transform="translate(-155.263 -74.5)"><use xlink:href="#d" x="324.503" y="154.81" width="100%" height="100%"/><use xlink:href="#c" x="334.258" y="154.81" width="100%" height="100%"/><use xlink:href="#i" x="340.116" y="154.81" width="100%" height="100%"/><use xlink:href="#m" x="345.974" y="154.81" width="100%" height="100%"/><use xlink:href="#c" x="352.477" y="154.81" width="100%" height="100%"/><use xlink:href="#j" x="358.335" y="154.81" width="100%" height="100%"/></g><g transform="translate(-155.263 -74.5)"><use xlink:href="#t" x="365.951" y="154.81" width="100%" height="100%"/><use xlink:href="#g" x="372.131" y="154.81" width="100%" height="100%"/><use xlink:href="#s" x="375.383" y="154.81" width="100%" height="100%"/><use xlink:href="#A" x="379.938" y="154.81" width="100%" height="100%"/></g><g transform="translate(-155.263 -74.5)"><use xlink:href="#p" x="392.658" y="154.81" width="100%" height="100%"/><use xlink:href="#l" x="398.516" y="154.81" width="100%" height="100%"/><use xlink:href="#m" x="403.071" y="154.81" width="100%" height="100%"/><use xlink:href="#c" x="409.575" y="154.81" width="100%" height="100%"/><use xlink:href="#l" x="415.432" y="154.81" width="100%" height="100%"/><use xlink:href="#n" x="419.987" y="154.81" width="100%" height="100%"/></g><use xlink:href="#p" x="170.08" y="169.25" width="100%" height="100%" transform="translate(-155.263 -74.5)"/><g transform="translate(-155.263 -74.5)"><use xlink:href="#e" x="176.249" y="169.25" width="100%" height="100%"/><use xlink:href="#g" x="182.752" y="169.25" width="100%" height="100%"/><use xlink:href="#p" x="186.004" y="169.25" width="100%" height="100%"/></g><g transform="translate(-155.263 -74.5)"><use xlink:href="#d" x="196.596" y="169.25" width="100%" height="100%"/><use xlink:href="#n" x="206.351" y="169.25" width="100%" height="100%"/><use xlink:href="#s" x="211.552" y="169.25" width="100%" height="100%"/><use xlink:href="#f" x="216.107" y="169.25" width="100%" height="100%"/><use xlink:href="#o" x="222.61" y="169.25" width="100%" height="100%"/></g><use xlink:href="#c" x="231.959" y="169.25" width="100%" height="100%" transform="translate(-155.263 -74.5)"/><g transform="translate(-155.263 -74.5)"><use xlink:href="#d" x="242.551" y="169.25" width="100%" height="100%"/><use xlink:href="#g" x="252.306" y="169.25" width="100%" height="100%"/><use xlink:href="#v" x="255.558" y="169.25" width="100%" height="100%"/></g><g transform="translate(-155.263 -74.5)"><use xlink:href="#w" x="266.509" y="169.25" width="100%" height="100%"/><use xlink:href="#p" x="277.233" y="169.25" width="100%" height="100%"/><use xlink:href="#l" x="283.091" y="169.25" width="100%" height="100%"/><use xlink:href="#x" x="287.645" y="169.25" width="100%" height="100%"/><use xlink:href="#g" x="294.149" y="169.25" width="100%" height="100%"/></g><g transform="translate(-155.263 -74.5)"><use xlink:href="#c" x="302.135" y="169.25" width="100%" height="100%"/><use xlink:href="#r" x="307.993" y="169.25" width="100%" height="100%"/></g><g transform="translate(-155.263 -74.5)"><use xlink:href="#p" x="317.927" y="169.25" width="100%" height="100%"/><use xlink:href="#l" x="323.785" y="169.25" width="100%" height="100%"/><use xlink:href="#r" x="328.34" y="169.25" width="100%" height="100%"/><use xlink:href="#g" x="333.541" y="169.25" width="100%" height="100%"/></g><g transform="translate(-155.263 -74.5)"><use xlink:href="#n" x="341.515" y="169.25" width="100%" height="100%"/><use xlink:href="#s" x="346.715" y="169.25" width="100%" height="100%"/></g><g transform="translate(-155.263 -74.5)"><use xlink:href="#m" x="356.004" y="169.25" width="100%" height="100%"/><use xlink:href="#g" x="362.508" y="169.25" width="100%" height="100%"/><use xlink:href="#o" x="365.759" y="169.25" width="100%" height="100%"/><use xlink:href="#h" x="370.374" y="169.25" width="100%" height="100%"/></g><g transform="translate(-155.263 -74.5)"><use xlink:href="#D" x="378.36" y="169.25" width="100%" height="100%"/><use xlink:href="#n" x="384.864" y="169.25" width="100%" height="100%"/><use xlink:href="#m" x="390.064" y="169.25" width="100%" height="100%"/><use xlink:href="#e" x="396.567" y="169.25" width="100%" height="100%"/><use xlink:href="#l" x="403.071" y="169.25" width="100%" height="100%"/><use xlink:href="#n" x="407.626" y="169.25" width="100%" height="100%"/><use xlink:href="#l" x="412.826" y="169.25" width="100%" height="100%"/><use xlink:href="#g" x="417.381" y="169.25" width="100%" height="100%"/><use xlink:href="#s" x="420.633" y="169.25" width="100%" height="100%"/><use xlink:href="#E" x="425.188" y="169.25" width="100%" height="100%"/></g><g transform="translate(-155.263 -74.5)"><use xlink:href="#d" x="170.08" y="183.7" width="100%" height="100%"/><use xlink:href="#p" x="179.835" y="183.7" width="100%" height="100%"/><use xlink:href="#h" x="185.693" y="183.7" width="100%" height="100%"/><use xlink:href="#h" x="188.945" y="183.7" width="100%" height="100%"/><use xlink:href="#g" x="192.197" y="183.7" width="100%" height="100%"/><use xlink:href="#o" x="195.449" y="183.7" width="100%" height="100%"/><use xlink:href="#v" x="200.063" y="183.7" width="100%" height="100%"/></g><g transform="translate(-155.263 -74.5)"><use xlink:href="#F" x="209.388" y="183.7" width="100%" height="100%"/><use xlink:href="#f" x="215.892" y="183.7" width="100%" height="100%"/><use xlink:href="#o" x="222.395" y="183.7" width="100%" height="100%"/><use xlink:href="#z" x="227.01" y="183.7" width="100%" height="100%"/></g><g transform="translate(-155.263 -74.5)"><use xlink:href="#n" x="233.836" y="183.7" width="100%" height="100%"/><use xlink:href="#m" x="239.036" y="183.7" width="100%" height="100%"/><use xlink:href="#e" x="245.54" y="183.7" width="100%" height="100%"/><use xlink:href="#g" x="252.043" y="183.7" width="100%" height="100%"/><use xlink:href="#o" x="255.295" y="183.7" width="100%" height="100%"/><use xlink:href="#o" x="259.91" y="183.7" width="100%" height="100%"/><use xlink:href="#n" x="264.525" y="183.7" width="100%" height="100%"/></g><g transform="translate(-155.263 -74.5)"><use xlink:href="#f" x="273.921" y="183.7" width="100%" height="100%"/><use xlink:href="#s" x="280.425" y="183.7" width="100%" height="100%"/></g><g transform="translate(-155.263 -74.5)"><use xlink:href="#d" x="289.164" y="183.7" width="100%" height="100%"/><use xlink:href="#c" x="298.919" y="183.7" width="100%" height="100%"/><use xlink:href="#o" x="304.777" y="183.7" width="100%" height="100%"/><use xlink:href="#o" x="309.392" y="183.7" width="100%" height="100%"/><use xlink:href="#c" x="314.006" y="183.7" width="100%" height="100%"/><use xlink:href="#v" x="319.864" y="183.7" width="100%" height="100%"/></g><g transform="translate(-155.263 -74.5)"><use xlink:href="#G" x="329.201" y="183.7" width="100%" height="100%"/><use xlink:href="#l" x="337.653" y="183.7" width="100%" height="100%"/><use xlink:href="#c" x="342.208" y="183.7" width="100%" height="100%"/><use xlink:href="#o" x="348.066" y="183.7" width="100%" height="100%"/></g><g transform="translate(-155.263 -74.5)"><use xlink:href="#m" x="356.877" y="183.7" width="100%" height="100%"/><use xlink:href="#n" x="363.38" y="183.7" width="100%" height="100%"/><use xlink:href="#r" x="368.581" y="183.7" width="100%" height="100%"/></g><g transform="translate(-155.263 -74.5)"><use xlink:href="#c" x="377.965" y="183.7" width="100%" height="100%"/><use xlink:href="#m" x="383.823" y="183.7" width="100%" height="100%"/></g><g transform="translate(-155.263 -74.5)"><use xlink:href="#s" x="390.016" y="183.7" width="100%" height="100%"/><use xlink:href="#n" x="394.571" y="183.7" width="100%" height="100%"/><use xlink:href="#v" x="399.771" y="183.7" width="100%" height="100%"/></g><use xlink:href="#H" x="409.096" y="183.7" width="100%" height="100%" transform="translate(-155.263 -74.5)"/><g transform="translate(-155.263 -74.5)"><use xlink:href="#n" x="416.748" y="183.7" width="100%" height="100%"/><use xlink:href="#h" x="421.948" y="183.7" width="100%" height="100%"/><use xlink:href="#q" x="425.2" y="183.7" width="100%" height="100%"/></g><g transform="translate(-155.263 -74.5)"><use xlink:href="#h" x="170.08" y="198.15" width="100%" height="100%"/><use xlink:href="#n" x="173.332" y="198.15" width="100%" height="100%"/><use xlink:href="#m" x="178.532" y="198.15" width="100%" height="100%"/></g><g transform="translate(-155.263 -74.5)"><use xlink:href="#s" x="184.713" y="198.15" width="100%" height="100%"/><use xlink:href="#n" x="189.268" y="198.15" width="100%" height="100%"/><use xlink:href="#o" x="194.468" y="198.15" width="100%" height="100%"/><use xlink:href="#C" x="199.083" y="198.15" width="100%" height="100%"/><use xlink:href="#f" x="205.264" y="198.15" width="100%" height="100%"/><use xlink:href="#n" x="211.767" y="198.15" width="100%" height="100%"/></g><use xlink:href="#c" x="221.702" y="198.15" width="100%" height="100%" transform="translate(-155.263 -74.5)"/><use xlink:href="#m" x="232.306" y="198.15" width="100%" height="100%" transform="translate(-155.263 -74.5)"/><g transform="translate(-155.263 -74.5)"><use xlink:href="#f" x="238.498" y="198.15" width="100%" height="100%"/><use xlink:href="#h" x="245.002" y="198.15" width="100%" height="100%"/><use xlink:href="#h" x="248.254" y="198.15" width="100%" height="100%"/><use xlink:href="#c" x="251.506" y="198.15" width="100%" height="100%"/><use xlink:href="#v" x="257.363" y="198.15" width="100%" height="100%"/></g><g transform="translate(-155.263 -74.5)"><use xlink:href="#G" x="268.338" y="198.15" width="100%" height="100%"/><use xlink:href="#f" x="276.79" y="198.15" width="100%" height="100%"/><use xlink:href="#d" x="283.294" y="198.15" width="100%" height="100%"/></g><use xlink:href="#o" x="297.783" y="198.15" width="100%" height="100%" transform="translate(-155.263 -74.5)"/><use xlink:href="#p" x="302.41" y="198.15" width="100%" height="100%" transform="translate(-155.263 -74.5)"/><g transform="translate(-155.263 -74.5)"><use xlink:href="#r" x="308.591" y="198.15" width="100%" height="100%"/><use xlink:href="#g" x="313.791" y="198.15" width="100%" height="100%"/><use xlink:href="#g" x="317.043" y="198.15" width="100%" height="100%"/><use xlink:href="#o" x="320.295" y="198.15" width="100%" height="100%"/></g><g transform="translate(-155.263 -74.5)"><use xlink:href="#m" x="329.643" y="198.15" width="100%" height="100%"/><use xlink:href="#c" x="336.147" y="198.15" width="100%" height="100%"/><use xlink:href="#s" x="342.005" y="198.15" width="100%" height="100%"/><use xlink:href="#p" x="346.56" y="198.15" width="100%" height="100%"/></g><g transform="translate(-155.263 -74.5)"><use xlink:href="#C" x="352.74" y="198.15" width="100%" height="100%"/><use xlink:href="#f" x="358.921" y="198.15" width="100%" height="100%"/><use xlink:href="#n" x="365.425" y="198.15" width="100%" height="100%"/></g><use xlink:href="#z" x="375.371" y="198.15" width="100%" height="100%" transform="translate(-155.263 -74.5)"/><g transform="translate(-155.263 -74.5)"><use xlink:href="#n" x="382.198" y="198.15" width="100%" height="100%"/><use xlink:href="#m" x="387.398" y="198.15" width="100%" height="100%"/><use xlink:href="#c" x="393.902" y="198.15" width="100%" height="100%"/><use xlink:href="#s" x="399.759" y="198.15" width="100%" height="100%"/><use xlink:href="#g" x="404.314" y="198.15" width="100%" height="100%"/><use xlink:href="#x" x="407.566" y="198.15" width="100%" height="100%"/><use xlink:href="#f" x="414.07" y="198.15" width="100%" height="100%"/><use xlink:href="#o" x="420.573" y="198.15" width="100%" height="100%"/><use xlink:href="#I" x="425.188" y="198.15" width="100%" height="100%"/></g><g transform="translate(-155.263 -74.5)"><use xlink:href="#J" x="165.52" y="212.59" width="100%" height="100%"/><use xlink:href="#n" x="170.075" y="212.59" width="100%" height="100%"/><use xlink:href="#s" x="175.275" y="212.59" width="100%" height="100%"/></g><g transform="translate(-155.263 -74.5)"><use xlink:href="#d" x="182.687" y="212.59" width="100%" height="100%"/><use xlink:href="#c" x="192.443" y="212.59" width="100%" height="100%"/><use xlink:href="#i" x="198.301" y="212.59" width="100%" height="100%"/><use xlink:href="#m" x="204.159" y="212.59" width="100%" height="100%"/><use xlink:href="#g" x="210.662" y="212.59" width="100%" height="100%"/><use xlink:href="#o" x="213.914" y="212.59" width="100%" height="100%"/></g><g transform="translate(-155.263 -74.5)"><use xlink:href="#e" x="221.398" y="212.59" width="100%" height="100%"/><use xlink:href="#g" x="227.901" y="212.59" width="100%" height="100%"/><use xlink:href="#o" x="231.153" y="212.59" width="100%" height="100%"/></g><g transform="translate(-155.263 -74.5)"><use xlink:href="#z" x="238.625" y="212.59" width="100%" height="100%"/><use xlink:href="#c" x="245.128" y="212.59" width="100%" height="100%"/><use xlink:href="#l" x="250.986" y="212.59" width="100%" height="100%"/><use xlink:href="#s" x="255.541" y="212.59" width="100%" height="100%"/><use xlink:href="#f" x="260.096" y="212.59" width="100%" height="100%"/><use xlink:href="#l" x="266.6" y="212.59" width="100%" height="100%"/><use xlink:href="#g" x="271.154" y="212.59" width="100%" height="100%"/><use xlink:href="#n" x="274.406" y="212.59" width="100%" height="100%"/><use xlink:href="#m" x="279.607" y="212.59" width="100%" height="100%"/></g><use xlink:href="#s" x="285.799" y="212.59" width="100%" height="100%" transform="translate(-155.263 -74.5)"/><g transform="translate(-155.263 -74.5)"><use xlink:href="#d" x="293.211" y="212.59" width="100%" height="100%"/><use xlink:href="#p" x="302.967" y="212.59" width="100%" height="100%"/><use xlink:href="#m" x="308.825" y="212.59" width="100%" height="100%"/></g><g transform="translate(-155.263 -74.5)"><use xlink:href="#s" x="315.017" y="212.59" width="100%" height="100%"/><use xlink:href="#n" x="319.572" y="212.59" width="100%" height="100%"/><use xlink:href="#o" x="324.773" y="212.59" width="100%" height="100%"/><use xlink:href="#j" x="329.387" y="212.59" width="100%" height="100%"/></g><g transform="translate(-155.263 -74.5)"><use xlink:href="#m" x="335.699" y="212.59" width="100%" height="100%"/><use xlink:href="#c" x="342.203" y="212.59" width="100%" height="100%"/><use xlink:href="#o" x="348.061" y="212.59" width="100%" height="100%"/><use xlink:href="#r" x="352.676" y="212.59" width="100%" height="100%"/><use xlink:href="#n" x="357.876" y="212.59" width="100%" height="100%"/><use xlink:href="#s" x="363.076" y="212.59" width="100%" height="100%"/><use xlink:href="#f" x="367.631" y="212.59" width="100%" height="100%"/><use xlink:href="#l" x="374.135" y="212.59" width="100%" height="100%"/></g><g transform="translate(-155.263 -74.5)"><use xlink:href="#l" x="381.547" y="212.59" width="100%" height="100%"/><use xlink:href="#g" x="386.102" y="212.59" width="100%" height="100%"/><use xlink:href="#e" x="389.353" y="212.59" width="100%" height="100%"/><use xlink:href="#g" x="395.857" y="212.59" width="100%" height="100%"/><use xlink:href="#r" x="399.109" y="212.59" width="100%" height="100%"/><use xlink:href="#f" x="404.309" y="212.59" width="100%" height="100%"/><use xlink:href="#h" x="410.813" y="212.59" width="100%" height="100%"/><use xlink:href="#f" x="414.064" y="212.59" width="100%" height="100%"/><use xlink:href="#o" x="420.568" y="212.59" width="100%" height="100%"/><use xlink:href="#K" x="425.183" y="212.59" width="100%" height="100%"/></g><use xlink:href="#d" x="170.08" y="227.04" width="100%" height="100%" transform="translate(-155.263 -74.5)"/><g transform="translate(-155.263 -74.5)"><use xlink:href="#f" x="179.512" y="227.04" width="100%" height="100%"/><use xlink:href="#o" x="186.016" y="227.04" width="100%" height="100%"/><use xlink:href="#v" x="190.631" y="227.04" width="100%" height="100%"/></g><g transform="translate(-155.263 -74.5)"><use xlink:href="#L" x="199.071" y="227.04" width="100%" height="100%"/><use xlink:href="#h" x="207.846" y="227.04" width="100%" height="100%"/><use xlink:href="#g" x="211.098" y="227.04" width="100%" height="100%"/><use xlink:href="#C" x="214.349" y="227.04" width="100%" height="100%"/><use xlink:href="#f" x="220.53" y="227.04" width="100%" height="100%"/><use xlink:href="#c" x="227.034" y="227.04" width="100%" height="100%"/><use xlink:href="#d" x="232.892" y="227.04" width="100%" height="100%"/></g><g transform="translate(-155.263 -74.5)"><use xlink:href="#s" x="246.544" y="227.04" width="100%" height="100%"/><use xlink:href="#g" x="251.099" y="227.04" width="100%" height="100%"/><use xlink:href="#m" x="254.351" y="227.04" width="100%" height="100%"/><use xlink:href="#r" x="260.854" y="227.04" width="100%" height="100%"/><use xlink:href="#g" x="266.055" y="227.04" width="100%" height="100%"/><use xlink:href="#e" x="269.306" y="227.04" width="100%" height="100%"/><use xlink:href="#f" x="275.81" y="227.04" width="100%" height="100%"/><use xlink:href="#m" x="282.314" y="227.04" width="100%" height="100%"/></g><use xlink:href="#s" x="288.506" y="227.04" width="100%" height="100%" transform="translate(-155.263 -74.5)"/><g transform="translate(-155.263 -74.5)"><use xlink:href="#f" x="296.946" y="227.04" width="100%" height="100%"/><use xlink:href="#l" x="303.45" y="227.04" width="100%" height="100%"/><use xlink:href="#m" x="308.005" y="227.04" width="100%" height="100%"/><use xlink:href="#c" x="314.508" y="227.04" width="100%" height="100%"/><use xlink:href="#v" x="320.366" y="227.04" width="100%" height="100%"/></g><use xlink:href="#M" x="322.004" y="227.04" width="100%" height="100%" transform="translate(-155.263 -74.5)"/><g clip-path="url(#N)" transform="translate(-155.263 -74.5)"><path d="M169.734 234.516V85" fill="none" stroke="#caf0fd" stroke-linecap="square" stroke-miterlimit="10"/></g><g clip-path="url(#O)" transform="translate(-155.263 -74.5)"><path d="M425.508 234.543V85.028" fill="none" stroke="#caf0fd" stroke-linecap="square" stroke-miterlimit="10"/></g></svg>